<svg width="25" height="24" viewBox="0 0 25 24" fill="none" xmlns="http://www.w3.org/2000/svg">
<g clip-path="url(#clip0_259_1499)">
<path d="M20 8.25H5C4.58579 8.25 4.25 8.58579 4.25 9V19.5C4.25 19.9142 4.58579 20.25 5 20.25H20C20.4142 20.25 20.75 19.9142 20.75 19.5V9C20.75 8.58579 20.4142 8.25 20 8.25Z" stroke="white" stroke-width="2" stroke-linecap="round" stroke-linejoin="round"/>
<path d="M12.5 15.375C13.1213 15.375 13.625 14.8713 13.625 14.25C13.625 13.6287 13.1213 13.125 12.5 13.125C11.8787 13.125 11.375 13.6287 11.375 14.25C11.375 14.8713 11.8787 15.375 12.5 15.375Z" fill="white"/>
<path d="M8.75 8.25V5.25C8.75 4.25544 9.14509 3.30161 9.84835 2.59835C10.5516 1.89509 11.5054 1.5 12.5 1.5C13.4946 1.5 14.4484 1.89509 15.1517 2.59835C15.8549 3.30161 16.25 4.25544 16.25 5.25V8.25" stroke="white" stroke-width="2" stroke-linecap="round" stroke-linejoin="round"/>
</g>
<defs>
<clipPath id="clip0_259_1499">
<rect width="24" height="24" fill="white" transform="translate(0.5)"/>
</clipPath>
</defs>
</svg>
