<svg xmlns="http://www.w3.org/2000/svg" viewBox="0 0 371.8 372.49"><defs><style>.cls-1{fill:#fff;}</style></defs><g id="Layer_2" data-name="Layer 2"><g id="Layer_1-2" data-name="Layer 1"><path class="cls-1" d="M282.48,337.62c-.17,3.11-.08,5.75-.49,8.3-2.54,15.93-14.83,26.42-31.35,26.51-25,.12-50,0-75,0q-55.87,0-111.75,0c-15.59,0-27.48-8.94-30.91-23.23a41.85,41.85,0,0,1-.93-9.29c-.1-12.26,0-24.51,0-36.76v-4.51c-2.69,0-5,0-7.37,0C10.29,298.37.17,288.24.13,273.9Q0,230,0,186.13c0-14,9.77-23.77,24.08-24.37,2.47-.1,4.94,0,7.91,0V157q0-45,0-90c0-15.89,8.68-27.62,22.95-31.11a48.45,48.45,0,0,1,8.53-1c2.73-.15,5.47,0,8.49,0,.17-3.07.09-5.93.53-8.72C75,10.43,87.28.08,103.72.05,137.85,0,172,0,206.1,0c28.37,0,56.75-.06,85.12,0,15.2.05,27.09,9.26,30.35,23.46a45.51,45.51,0,0,1,.86,10.05q.07,64.14-.07,128.28c0,3.77,1.13,5.72,4.63,6.75,12.91,3.79,25.75,7.8,38.68,11.49,5.11,1.46,6.6,2.95,6,8.07-4.41,37.9-19.77,70.65-46.34,98.06a9.19,9.19,0,0,0-2.93,7.25,135.67,135.67,0,0,1-.19,15.36c-1.41,16.7-14.08,28.44-30.81,28.79C288.54,337.67,285.67,337.62,282.48,337.62ZM310.8,161v-4.12q0-62.64,0-125.28c0-12.08-7.83-20-19.88-20.06q-93.57-.06-187.12,0c-12,0-19.73,7.75-20,19.65-.09,5.47,0,11,0,16.43q0,73,0,145.91c0,1.33.11,2.66.19,4.36,4.69,0,9,0,13.38,0,15.43.1,25.31,9.88,25.38,25.32q.12,24.75,0,49.51c-.07,15.43-10.57,25.85-25.95,25.9-4.21,0-8.42,0-12.86,0,0,3.69-.24,6.93,0,10.13a18.19,18.19,0,0,0,18.49,17q94.5.09,189,.07a21,21,0,0,0,5.18-.59c10.6-2.77,15.73-12.19,13.64-25.7-5.44,6.86-9.69,2.55-13.89-1.16-4.77-4.22-9.67-8.33-14.07-12.92q-38.73-40.41-45.74-96c-.84-6.68.25-8.28,6.87-9.48a180.14,180.14,0,0,0,53.5-18.7C301.4,158.92,305.54,156.32,310.8,161ZM11.86,206.47a18,18,0,0,0-.23,1.86c0,21.88-.06,43.75,0,65.63,0,8,5.19,12.9,13.35,12.91q36.18,0,72.36,0c9,0,13.84-4.82,13.86-13.9q0-24.57,0-49.13c0-9.51-4.79-14.33-14.24-14.33-20.87,0-41.74,0-62.61,0C26.81,209.46,19.11,210.48,11.86,206.47Zm292.36,83.28c28.31-20.83,52.34-63.36,55.81-98.56a3.68,3.68,0,0,0-.91-.51,223.55,223.55,0,0,1-53.31-19.39,3.89,3.89,0,0,0-3.06.13,237.57,237.57,0,0,1-54.24,19.78C254.61,231.23,272.9,264.16,304.22,289.75Zm-34.13,47.87H199.78q-48.56,0-97.12.12a30.71,30.71,0,0,1-30.42-30c0-2.95,0-5.91,0-8.92h-28c-.2.39-.4.61-.4.82q0,22.13,0,44.26a10.52,10.52,0,0,0,.32,2.22c2.08,9.43,9.34,14.78,20.18,14.79H249.92c1,0,2,0,3-.07C264.77,359.84,272.43,349.71,270.09,337.62ZM72,197.68V46.59c-3,0-5.71,0-8.44,0-12.15.09-19.81,7.8-19.82,20q0,48.77,0,97.52v33.55Zm-40.41-.15V174.21a90.53,90.53,0,0,0-9.49.06,11.71,11.71,0,0,0-10.24,11.5c-.1,6.27,3.46,11,9.2,11.69A96.93,96.93,0,0,0,31.57,197.53Z"/><path class="cls-1" d="M149.38,156.55c-6.63,0-13.25.07-19.88,0-14-.19-22.28-8.6-22.36-22.6-.07-11.63,0-23.26,0-34.89,0-8.11,3-14.49,9.8-19.14a5.22,5.22,0,0,0,1.77-3.59c.36-6.35-.2-12.83.81-19.06a30.39,30.39,0,0,1,32.37-25.12c16.47,1.42,28.2,13.8,28.51,30.13,0,2.13.13,4.26,0,6.38-.37,5.78-.18,10.79,5.67,14.71,4.69,3.13,6.05,9,6.08,14.74.07,12.13.14,24.26,0,36.39-.15,12.77-9.29,21.82-22.1,22C163.13,156.65,156.25,156.55,149.38,156.55Zm-.4-11c6.74,0,13.48.05,20.22,0,7.09-.07,10.56-3.48,10.62-10.62q.12-17.61,0-35.21c0-7.23-3.38-10.6-10.56-10.64q-20.22-.12-40.44,0c-7.14,0-10.64,3.53-10.68,10.58q-.11,17.61,0,35.21c0,7,3.61,10.61,10.62,10.68C135.5,145.59,142.24,145.53,149,145.53ZM130.47,76.46h38.28c0-5.26.39-10.28-.09-15.21a19.12,19.12,0,0,0-19.8-17.58C138.93,44,131,52,130.5,62.36,130.29,67,130.47,71.59,130.47,76.46Z"/><path class="cls-1" d="M201.23,294q26.4,0,52.82,0c4.95,0,7.15,1.77,7.24,5.6a5.48,5.48,0,0,1-5,5.91,18.73,18.73,0,0,1-2.25.05H148.74c-4.92,0-7.43-2.1-7.29-6,.12-3.5,2.38-5.53,6.58-5.56,10.74-.07,21.48,0,32.22,0Z"/><path class="cls-1" d="M189.22,267.18q-20.24,0-40.48,0c-3.06,0-5.77-.49-6.91-3.86a5.62,5.62,0,0,1,4.33-7.69,13.37,13.37,0,0,1,2.61-.17l81.34,0c3.37,0,6.35.64,7.15,4.53.88,4.21-1.89,7.17-6.8,7.19C216.71,267.21,203,267.18,189.22,267.18Z"/><path class="cls-1" d="M168.78,178.71c14,0,28,0,42,0,3.93,0,6.15,2,6.28,5.42s-2.2,5.86-6.11,6.07c-1.12.06-2.24,0-3.37,0H131.84c-1.75,0-3.5,0-5.25,0-3.84-.17-6-2.24-6.08-5.66-.05-3.57,2.24-5.81,6.29-5.83C140.79,178.68,154.79,178.71,168.78,178.71Z"/><path class="cls-1" d="M181.85,228.76q-16.11,0-32.23,0c-1.36,0-3.13.29-4-.43-1.66-1.37-3.51-3.19-4-5.15-.63-2.55.88-4.87,3.69-5.7a11.52,11.52,0,0,1,3.32-.38c22.23,0,44.47-.1,66.7.12a8.58,8.58,0,0,1,6.18,3c2.68,3.91-.45,8.48-5.56,8.51C204.58,228.81,193.22,228.76,181.85,228.76Z"/><path class="cls-1" d="M250.41,136.74c-10.12,0-20.24,0-30.37,0-4.61,0-6.78-1.8-6.9-5.53-.12-4,2-6,6.78-6q30.38-.09,60.74,0c4.51,0,6.83,2.07,6.84,5.67s-2.59,5.89-7.1,5.9C270.4,136.77,260.41,136.74,250.41,136.74Z"/><path class="cls-1" d="M250.39,100c-10.12,0-20.25,0-30.37,0-4.79,0-7-1.93-6.88-5.91.08-3.82,2.12-5.59,6.81-5.59q30.36-.06,60.73,0c4.45,0,6.82,2.06,6.83,5.65s-2.6,5.84-7.14,5.85C270.38,100.07,260.38,100,250.39,100Z"/><path class="cls-1" d="M234.63,51.18c5,0,10,0,15,0,4.15.06,6.42,2.12,6.46,5.65s-2.31,5.9-6.26,5.95q-15.33.16-30.67,0c-4.12-.06-6.1-2.31-6-6,.11-3.49,2.2-5.46,6.15-5.53C224.4,51.12,229.52,51.18,234.63,51.18Z"/><path class="cls-1" d="M294.6,234.47c3.42-3.64,6.33-6.88,9.39-10q12.27-12.37,24.64-24.64c3.08-3.05,6.37-3.28,8.88-.8s2.42,5.74-.68,8.86q-18.76,18.86-37.63,37.62c-3.3,3.28-6.06,3.26-9.39,0q-7-6.82-13.77-13.78c-3.09-3.15-3.26-6.32-.65-8.87s5.82-2.18,8.88.88C287.61,227.11,290.84,230.56,294.6,234.47Z"/><path class="cls-1" d="M132.81,115.86c0-10.63,5.14-16.86,13.05-18.33,8.09-1.49,15.74,2.65,18.42,10a16.3,16.3,0,0,1-7.07,20.08,4.09,4.09,0,0,0-2.49,4,5.65,5.65,0,0,1-5.68,5.75c-3.19.07-5.55-2-5.68-5.62a4.63,4.63,0,0,0-2.68-4.35C135.46,124.28,132.84,119.54,132.81,115.86Zm15.69,2.84c2.94.06,4.87-1.16,5.07-4.22.17-2.66-.87-4.6-3.83-4.93s-5.31,1.56-5.35,4.35A4.32,4.32,0,0,0,148.5,118.7Z"/></g></g></svg>