<svg id="Layer_1" data-name="Layer 1" xmlns="http://www.w3.org/2000/svg" viewBox="0 0 370.73 370.63"><defs><style>.cls-1{fill:#fff;}</style></defs><path class="cls-1" d="M-660.67,726.78c4.87,0,9.35-.19,13.8.08a13.32,13.32,0,0,1,6.3,1.76c15.52,10.18,32.13,17.66,50.43,21.17,3.71.71,5.26,2.82,5.25,6.52-.06,22.63.14,45.26-.13,67.88-.17,13.95-4.84,26.76-12.13,38.49a126.64,126.64,0,0,1-65.6,53.37,20.55,20.55,0,0,1-6.92,1.15q-138.78.09-277.56,0c-7,0-8.3-1.3-8.3-8.27q0-147.76-.07-295.52a11.41,11.41,0,0,1,3.74-8.87q27.3-27.06,54.36-54.37a11.1,11.1,0,0,1,8.56-3.6q110.09.14,220.17.07c6.78,0,8.1,1.32,8.1,8.08q0,83.43,0,166.88Zm-88.46,78.28H-908.64a32.77,32.77,0,0,1-4.86-.22,4.72,4.72,0,0,1-4.22-5,4.7,4.7,0,0,1,4.11-5.05,24.68,24.68,0,0,1,4.47-.24q77.46,0,154.92,0h4.82V761.79h-160c-5.68,0-8.33-1.67-8.38-5.27s2.52-5.22,8.27-5.22q75.59,0,151.17-.08a87.51,87.51,0,0,0,15.44-1.71c17.7-3.26,33.68-10.7,48.76-20.36a16.66,16.66,0,0,1,7.63-2.26c5-.35,10.13-.1,15.15-.1V557.43H-886.49v4.29q0,23.44,0,46.88c0,5.46-1.67,7.12-7.17,7.12q-23.62,0-47.26,0h-3.89V906.49h252.11c-.32-.44-.42-.68-.6-.8-.72-.49-1.48-.93-2.21-1.4-17.06-11-31.38-24.74-41.7-42.34-1.6-2.72-3.24-3.72-6.42-3.71q-82.51.16-165,.07a30.27,30.27,0,0,1-4.86-.24,4.71,4.71,0,0,1-4.18-5,4.71,4.71,0,0,1,4.15-5,25.68,25.68,0,0,1,4.48-.23q79.89,0,159.79,0c1.53,0,3.06-.15,5.24-.27C-750,833.66-749.15,819.58-749.13,805.06Zm153.24-11h.47c0-10.49,0-21,0-31.49,0-2.11-.3-3.27-2.79-3.84-16.34-3.79-31.36-10.68-45.51-19.62a12.59,12.59,0,0,0-6.24-1.76c-11.37-.17-22.75-.19-34.12,0a13.27,13.27,0,0,0-6.56,2c-14,8.75-28.75,15.57-44.83,19.32-2.66.62-3.27,1.73-3.26,4.28q.16,28.68.05,57.36A62.49,62.49,0,0,0-733,847.19c13.18,28.3,35.34,46.9,63.86,58.45a7.52,7.52,0,0,0,5-.26c18.51-7,34.05-18.3,47-33.06,11-12.49,19.6-26.5,21.07-43.42C-595.08,817.37-595.89,805.69-595.89,794.08Zm-301.3-227.66L-935.81,605h38.62Z" transform="translate(955.6 -546.62)"/><path class="cls-1" d="M-783.85,675.59c0-9.62,0-19.24,0-28.86,0-8.71,5.07-13.78,13.7-13.79q29,0,58.1,0c8.31,0,13.65,5.2,13.68,13.54q.12,29,0,58.09c0,8.54-5.33,13.83-13.81,13.85q-29.05.08-58.11,0c-8.35,0-13.52-5.23-13.57-13.6C-783.9,695.08-783.85,685.33-783.85,675.59Zm42.76-32.16c-9.38,0-18.75.09-28.13,0-3.07,0-4.2,1-4.18,4.09q.15,28.13,0,56.25c0,3,.89,4.28,4.07,4.26q28.13-.13,56.26,0c3,0,4.28-1.05,4.27-4.14q-.11-28.12,0-56.25c0-3-1-4.26-4.16-4.21C-722.34,643.52-731.71,643.43-741.09,643.43Z" transform="translate(955.6 -546.62)"/><path class="cls-1" d="M-832.32,676.09c0,9.37,0,18.74,0,28.11,0,9.13-5.06,14.21-14.08,14.23q-28.68,0-57.36,0c-8.75,0-14-5.23-14.06-14q-.09-28.86,0-57.72c0-8.62,5.27-13.78,13.81-13.79q29.06,0,58.1,0c8.41,0,13.51,5.09,13.58,13.54C-832.27,656.35-832.33,666.22-832.32,676.09Zm-42.94-32.66c-9.25,0-18.5.11-27.75-.06-3.32-.06-4.39,1.2-4.38,4.39q.14,27.93,0,55.87c0,3.24,1.22,4.38,4.45,4.36q27.95-.15,55.88,0c3.34,0,4.3-1.27,4.28-4.44q-.15-27.93,0-55.87c0-3.27-1.09-4.37-4.36-4.31C-856.51,643.54-865.89,643.43-875.26,643.43Z" transform="translate(955.6 -546.62)"/><path class="cls-1" d="M-686,826.51l48.57-39.43a19.63,19.63,0,0,1,2.37-1.82c2.63-1.53,5.11-1.24,7,1.18a4.7,4.7,0,0,1-.47,6.76c-2,1.91-4.16,3.58-6.29,5.31l-46.82,38c-5.38,4.36-7.59,4-11.42-1.66-5.85-8.7-11.72-17.38-17.51-26.12-1.95-3-1.5-5.91.89-7.65s5.57-1.15,7.76,1.78c.82,1.1,1.55,2.27,2.31,3.41Z" transform="translate(955.6 -546.62)"/><path class="cls-1" d="M-750.34,680.94l23.86-19.36c1.16-1,2.29-1.94,3.5-2.81,2.58-1.86,5.14-1.9,7.4.48,2.1,2.22,1.85,5.39-.82,7.59q-15.76,13-31.72,25.75c-2.79,2.23-5.75,1.72-7.81-1.21-3.81-5.41-7.49-10.92-11.1-16.46-1.74-2.66-1.44-5.28,1.14-7.31,2.36-1.85,5.51-1.27,7.51,1.5C-755.68,672.86-753.18,676.74-750.34,680.94Z" transform="translate(955.6 -546.62)"/><path class="cls-1" d="M-868.29,675.7c4,3.75,7.56,6.89,10.92,10.19,3,3,3.29,6.19.87,8.48s-5.19,2-8.18-1c-3.37-3.34-6.64-6.76-10.34-10.53-3.48,3.56-6.74,7-10.08,10.28s-6,3.57-8.47,1.25-2.17-5.45,1.16-8.74,6.64-6.35,10.49-10c-3.89-3.69-7.36-6.88-10.71-10.19-3.12-3.08-3.41-6.1-1-8.47s5.36-2,8.48,1.15c3.33,3.35,6.56,6.79,10.13,10.5,3.79-3.93,7.12-7.48,10.57-10.91,2.75-2.73,5.61-3,7.91-.82s2.24,5.44-.54,8.21C-860.49,668.51-864.09,671.75-868.29,675.7Z" transform="translate(955.6 -546.62)"/></svg>