<svg width="32" height="32" viewBox="0 0 32 32" fill="none" xmlns="http://www.w3.org/2000/svg">
<path d="M21.0065 19.0066H19.9532L19.5798 18.6466C20.8865 17.1266 21.6732 15.1533 21.6732 13.0066C21.6732 8.21997 17.7932 4.33997 13.0065 4.33997C8.21984 4.33997 4.33984 8.21997 4.33984 13.0066C4.33984 17.7933 8.21984 21.6733 13.0065 21.6733C15.1532 21.6733 17.1265 20.8866 18.6465 19.58L19.0065 19.9533V21.0066L25.6732 27.66L27.6598 25.6733L21.0065 19.0066ZM13.0065 19.0066C9.68651 19.0066 7.00651 16.3266 7.00651 13.0066C7.00651 9.68663 9.68651 7.00663 13.0065 7.00663C16.3265 7.00663 19.0065 9.68663 19.0065 13.0066C19.0065 16.3266 16.3265 19.0066 13.0065 19.0066Z" fill="#3D3D3D"/>
</svg>
